<svg width="14" height="14" viewBox="0 0 14 14" fill="none" xmlns="http://www.w3.org/2000/svg">
<g id="icon">
<path id="Vector" d="M4.37516 3.26602L5.83349 4.08268L5.01682 2.62435L5.83349 1.16602L4.37516 1.98268L2.91682 1.16602L3.73349 2.62435L2.91682 4.08268L4.37516 3.26602ZM11.3752 8.98268L9.91682 8.16602L10.7335 9.62435L9.91682 11.0827L11.3752 10.266L12.8335 11.0827L12.0168 9.62435L12.8335 8.16602L11.3752 8.98268ZM12.8335 1.16602L11.3752 1.98268L9.91682 1.16602L10.7335 2.62435L9.91682 4.08268L11.3752 3.26602L12.8335 4.08268L12.0168 2.62435L12.8335 1.16602ZM8.38266 4.25185C8.15516 4.02435 7.78766 4.02435 7.56016 4.25185L0.752656 11.0593C0.525156 11.2868 0.525156 11.6543 0.752656 11.8818L2.11766 13.2468C2.34516 13.4743 2.71266 13.4743 2.94016 13.2468L9.74182 6.44518C9.96932 6.21768 9.96932 5.85018 9.74182 5.62268L8.38266 4.25185ZM7.78182 7.45435L6.54516 6.21768L7.96849 4.79435L9.20516 6.03102L7.78182 7.45435Z" fill="white"/>
</g>
</svg>
